<svg width="98" height="98" viewBox="0 0 98 98" fill="none" xmlns="http://www.w3.org/2000/svg">
<g filter="url(#filter0_d_701_603)">
<mask id="path-1-inside-1_701_603" fill="white">
<path fill-rule="evenodd" clip-rule="evenodd" d="M4.41278 0.436638C4.0281 0.843651 4 1.05989 4 3.6116C4 6.22992 4.01918 6.36786 4.43937 6.76015C4.87816 7.16981 4.89316 7.17037 14.1229 7.17037H23.3671V10.2838V13.3973H22.5051C22.0192 13.3973 21.3199 13.5611 20.9022 13.773C19.5711 14.4477 19.2673 15.0693 18.3326 19.029C17.8642 21.013 17.481 22.8467 17.481 23.1041C17.481 23.3615 17.668 23.7453 17.8966 23.9568C18.2975 24.3279 18.5342 24.3415 24.6457 24.3415H30.9793L31.4453 23.8783C31.7016 23.6236 31.9114 23.2947 31.9114 23.1471C31.9114 22.9997 31.5246 21.2345 31.0516 19.2245C30.4748 16.7717 30.0419 15.3446 29.7351 14.884C29.1797 14.05 27.8999 13.3973 26.8197 13.3973H26.0253V10.2838V7.17037H36.8481H47.6709V10.2838V13.3973H46.9053C45.4277 13.3973 44.1662 14.1794 43.6169 15.4361C43.2966 16.1692 41.7848 22.5437 41.7848 23.1614C41.7848 23.3592 41.9827 23.7056 42.2242 23.9313C42.6575 24.3357 42.7551 24.3415 49.0266 24.3415H55.3894L55.8024 23.9049C56.0295 23.6647 56.2152 23.3182 56.2152 23.135C56.2152 22.5367 54.6956 16.1515 54.3831 15.4361C53.8338 14.1794 52.5723 13.3973 51.0947 13.3973H50.3291V10.2838V7.17037H61.1519H71.9747V10.2838V13.3973H71.1803C70.1001 13.3973 68.8203 14.05 68.2649 14.884C67.9581 15.3446 67.5252 16.7717 66.9484 19.2245C66.4754 21.2345 66.0886 22.9997 66.0886 23.1471C66.0886 23.2947 66.2984 23.6236 66.5547 23.8783L67.0207 24.3415H73.3543C79.4658 24.3415 79.7025 24.3279 80.1034 23.9568C80.332 23.7453 80.519 23.363 80.519 23.1075C80.519 22.852 80.1332 21.0147 79.6615 19.0245C78.7213 15.0567 78.4222 14.4443 77.0978 13.773C76.6801 13.5611 75.9808 13.3973 75.4949 13.3973H74.6329V10.2838V7.17037H83.9037H93.1742L93.5872 6.73374C93.9719 6.32672 94 6.11048 94 3.55877C94 0.940451 93.9808 0.802516 93.5606 0.410221L93.1211 0H48.9734H4.82576L4.41278 0.436638ZM91.3418 3.58519V4.52866H49H6.65823V3.58519V2.64172H49H91.3418V3.58519ZM27.5067 16.2769C27.6582 16.4585 28.8734 21.2081 28.8734 21.6191C28.8734 21.6634 26.9937 21.6998 24.6962 21.6998C22.2356 21.6998 20.519 21.6274 20.519 21.5236C20.519 21.0005 21.6622 16.5445 21.8561 16.3126C22.1644 15.9431 27.2014 15.9114 27.5067 16.2769ZM51.8202 16.2886C51.9856 16.4866 53.1772 21.1411 53.1772 21.5887C53.1772 21.6498 51.2975 21.6998 49 21.6998C46.7025 21.6998 44.8228 21.6498 44.8228 21.5887C44.8228 21.1411 46.0144 16.4866 46.1798 16.2886C46.4779 15.9316 51.5221 15.9316 51.8202 16.2886ZM76.1439 16.3126C76.3378 16.5445 77.481 21.0005 77.481 21.5236C77.481 21.6274 75.7644 21.6998 73.3038 21.6998C71.0063 21.6998 69.1266 21.6634 69.1266 21.6191C69.1266 21.2081 70.3418 16.4585 70.4933 16.2769C70.7986 15.9114 75.8356 15.9431 76.1439 16.3126ZM38.8934 42.9751C38.6677 43.2302 38.5792 43.9701 38.5042 46.23C38.4235 48.6568 38.3335 49.3475 37.9756 50.287C37.618 51.2255 37.5252 51.9354 37.4335 54.4382L37.3228 57.4573L35.5332 57.5121C34.5489 57.5421 33.6466 57.5296 33.5278 57.4845C33.3675 57.4232 33.3747 56.7065 33.5561 54.6937C33.9278 50.5674 34.1225 50.7587 29.5539 50.7587C25.1659 50.7587 25.3439 50.6357 25.529 53.5404C25.6004 54.6569 25.7101 56.0163 25.7732 56.5611L25.8877 57.5517H24.659C23.9832 57.5517 23.3925 57.5141 23.3462 57.4681C23.2999 57.4221 23.3654 56.2544 23.4916 54.8736C23.799 51.5148 23.8008 51.5671 23.3671 51.1361C23.0149 50.7861 22.7342 50.7587 19.5041 50.7587C15.1338 50.7587 15.2794 50.6655 15.4566 53.3523C15.5234 54.3647 15.6339 55.7238 15.7021 56.3724L15.8263 57.5517H10.2928C5.01259 57.5517 4.74203 57.5691 4.37975 57.9291C4.03513 58.2716 4 58.558 4 61.0216C4 64.1781 4.12399 64.4845 5.47342 64.6645L6.27848 64.7717V76.696V88.6204L6.71785 89.0308L7.15741 89.441H49.0266H90.8958L91.3087 89.0044L91.7215 88.5675V76.6696V64.7717L92.5266 64.6645C93.876 64.4845 94 64.1781 94 61.0216C94 58.558 93.9649 58.2716 93.6202 57.9291C93.2447 57.5558 92.9874 57.5517 70.105 57.5517H46.9695L46.8575 54.8628C46.772 52.8109 46.6465 51.8833 46.3279 50.9474C45.9924 49.9624 45.8872 49.1024 45.7936 46.5801C45.639 42.4081 45.8631 42.6449 42.0696 42.6449C39.5606 42.6449 39.1475 42.6879 38.8934 42.9751ZM43.1139 47.4549C43.1139 49.3122 43.1863 49.8317 43.6188 51.0761C44.0593 52.3439 44.1258 52.8426 44.1409 54.9932L44.1582 57.4573L42.1171 57.5109L40.0759 57.5645V54.9492C40.0759 52.6473 40.1327 52.1728 40.5493 50.9874C40.8943 50.006 41.0568 49.0501 41.148 47.4637L41.2731 45.2866H42.1934H43.1139V47.4549ZM20.8023 55.1458C20.6225 57.6562 20.6639 57.5806 19.5081 57.5138L18.5289 57.4573L18.4027 56.5139C18.3334 55.995 18.2399 55.0823 18.1953 54.4854L18.1142 53.4004H19.5208H20.9272L20.8023 55.1458ZM30.877 54.9571C30.662 57.6423 30.7085 57.5517 29.5427 57.5517H28.5332L28.4086 55.995C28.3401 55.1387 28.2389 54.2046 28.1838 53.9193L28.0837 53.4004H29.5427H31.0015L30.877 54.9571ZM91.3418 61.1369V62.0803H49H6.65823V61.1369V60.1934H49H91.3418V61.1369ZM89.0633 75.7607V86.7993H83.1259H77.1886L76.2271 81.0335L75.2654 75.268L75.9459 74.9853C76.822 74.6217 77.6481 73.8467 77.979 73.0778C78.1401 72.704 78.2405 71.7794 78.2405 70.672C78.2405 67.8959 78.951 68.1186 70.0898 68.1186H62.6984L62.305 68.6158C61.9847 69.0201 61.9116 69.3809 61.9125 70.5499C61.9131 71.3401 62.0041 72.3108 62.1147 72.7067C62.3618 73.5909 63.6225 74.8836 64.3856 75.0353C64.6957 75.097 64.9494 75.2272 64.9494 75.325C64.9494 75.5233 63.2963 85.4648 63.1277 86.2804L63.0204 86.7993H59.523C57.5992 86.7993 56.0253 86.7589 56.0253 86.7094C56.0253 86.611 54.3858 76.6464 54.2316 75.8084C54.148 75.3537 54.2228 75.254 54.8409 74.9974C56.5228 74.299 57.1543 73.1229 57.1604 70.678C57.164 69.2034 57.1127 68.9373 56.7518 68.5552L56.3388 68.1186H49.0266C40.2072 68.1186 40.833 67.925 40.8396 70.6516C40.8457 73.1288 41.4702 74.2962 43.1667 75.0006C43.7504 75.2429 43.8616 75.3722 43.7838 75.7171C43.6908 76.1303 41.9747 86.5672 41.9747 86.7208C41.9747 86.764 40.4008 86.7993 38.477 86.7993H34.9796L34.8723 86.2804C34.7037 85.4648 33.0506 75.5233 33.0506 75.325C33.0506 75.2272 33.3043 75.097 33.6144 75.0353C34.3775 74.8836 35.6382 73.5909 35.8853 72.7067C35.9959 72.3108 36.0869 71.3401 36.0875 70.5499C36.0884 69.3809 36.0153 69.0201 35.695 68.6158L35.3016 68.1186H27.9102C19.049 68.1186 19.7595 67.8959 19.7595 70.672C19.7595 71.7794 19.8599 72.704 20.0209 73.0778C20.3519 73.8466 21.178 74.6217 22.0539 74.9853L22.7344 75.2678L21.8227 80.7033C21.3212 83.6928 20.9082 86.2875 20.9048 86.4691C20.8991 86.7764 20.485 86.7993 14.9177 86.7993H8.93671V75.7607V64.7221H49H89.0633V75.7607ZM33.4304 71.2843C33.4304 71.5726 33.2973 71.9972 33.1347 72.2278C32.8423 72.6429 32.7878 72.6472 27.9269 72.6472C22.4618 72.6472 22.4177 72.6372 22.4177 71.4073V70.7603H27.924H33.4304V71.2843ZM54.5063 71.3586C54.5063 71.6877 54.3649 72.1123 54.1921 72.3021C53.9033 72.6193 53.4856 72.6472 49.033 72.6472C43.6203 72.6472 43.4937 72.6185 43.4937 71.3915V70.7603H49H54.5063V71.3586ZM75.5823 71.4073C75.5823 72.6372 75.5382 72.6472 70.0731 72.6472C65.2121 72.6472 65.1577 72.6429 64.8653 72.2278C64.7027 71.9972 64.5696 71.5726 64.5696 71.2843V70.7603H70.076H75.5823V71.4073ZM84.9191 72.3291C84.5359 72.7346 84.5063 72.9552 84.5063 75.4006C84.5063 78.5096 84.6459 78.8741 85.8354 78.8741C87.0271 78.8741 87.1646 78.512 87.1646 75.3742C87.1646 72.8365 87.1442 72.694 86.7252 72.3027C86.155 71.7705 85.4375 71.7809 84.9191 72.3291ZM31.2297 80.7139C31.7236 83.6977 32.1702 86.2875 32.2222 86.4691C32.3103 86.7766 32.0175 86.7993 27.9368 86.7993C24.9624 86.7993 23.557 86.7347 23.557 86.5981C23.557 86.3602 25.2231 76.3313 25.3653 75.7135C25.4603 75.3003 25.5282 75.2889 27.8973 75.2889H30.3316L31.2297 80.7139ZM51.4684 75.3957C51.4684 75.545 53.1588 85.6452 53.29 86.2804L53.3973 86.7993H49H44.6027L44.71 86.2804C44.8412 85.6452 46.5316 75.545 46.5316 75.3957C46.5316 75.3371 47.6424 75.2889 49 75.2889C50.3576 75.2889 51.4684 75.3371 51.4684 75.3957ZM72.6372 75.7135C72.7516 76.1988 74.4411 86.4423 74.4423 86.6578C74.4427 86.7357 72.4722 86.7993 70.0632 86.7993C65.9825 86.7993 65.6897 86.7766 65.7778 86.4691C65.8298 86.2875 66.2764 83.6977 66.7703 80.7139L67.6684 75.2889H70.1027C72.471 75.2889 72.5397 75.3004 72.6372 75.7135Z"/>
</mask>
<path fill-rule="evenodd" clip-rule="evenodd" d="M4.41278 0.436638C4.0281 0.843651 4 1.05989 4 3.6116C4 6.22992 4.01918 6.36786 4.43937 6.76015C4.87816 7.16981 4.89316 7.17037 14.1229 7.17037H23.3671V10.2838V13.3973H22.5051C22.0192 13.3973 21.3199 13.5611 20.9022 13.773C19.5711 14.4477 19.2673 15.0693 18.3326 19.029C17.8642 21.013 17.481 22.8467 17.481 23.1041C17.481 23.3615 17.668 23.7453 17.8966 23.9568C18.2975 24.3279 18.5342 24.3415 24.6457 24.3415H30.9793L31.4453 23.8783C31.7016 23.6236 31.9114 23.2947 31.9114 23.1471C31.9114 22.9997 31.5246 21.2345 31.0516 19.2245C30.4748 16.7717 30.0419 15.3446 29.7351 14.884C29.1797 14.05 27.8999 13.3973 26.8197 13.3973H26.0253V10.2838V7.17037H36.8481H47.6709V10.2838V13.3973H46.9053C45.4277 13.3973 44.1662 14.1794 43.6169 15.4361C43.2966 16.1692 41.7848 22.5437 41.7848 23.1614C41.7848 23.3592 41.9827 23.7056 42.2242 23.9313C42.6575 24.3357 42.7551 24.3415 49.0266 24.3415H55.3894L55.8024 23.9049C56.0295 23.6647 56.2152 23.3182 56.2152 23.135C56.2152 22.5367 54.6956 16.1515 54.3831 15.4361C53.8338 14.1794 52.5723 13.3973 51.0947 13.3973H50.3291V10.2838V7.17037H61.1519H71.9747V10.2838V13.3973H71.1803C70.1001 13.3973 68.8203 14.05 68.2649 14.884C67.9581 15.3446 67.5252 16.7717 66.9484 19.2245C66.4754 21.2345 66.0886 22.9997 66.0886 23.1471C66.0886 23.2947 66.2984 23.6236 66.5547 23.8783L67.0207 24.3415H73.3543C79.4658 24.3415 79.7025 24.3279 80.1034 23.9568C80.332 23.7453 80.519 23.363 80.519 23.1075C80.519 22.852 80.1332 21.0147 79.6615 19.0245C78.7213 15.0567 78.4222 14.4443 77.0978 13.773C76.6801 13.5611 75.9808 13.3973 75.4949 13.3973H74.6329V10.2838V7.17037H83.9037H93.1742L93.5872 6.73374C93.9719 6.32672 94 6.11048 94 3.55877C94 0.940451 93.9808 0.802516 93.5606 0.410221L93.1211 0H48.9734H4.82576L4.41278 0.436638ZM91.3418 3.58519V4.52866H49H6.65823V3.58519V2.64172H49H91.3418V3.58519ZM27.5067 16.2769C27.6582 16.4585 28.8734 21.2081 28.8734 21.6191C28.8734 21.6634 26.9937 21.6998 24.6962 21.6998C22.2356 21.6998 20.519 21.6274 20.519 21.5236C20.519 21.0005 21.6622 16.5445 21.8561 16.3126C22.1644 15.9431 27.2014 15.9114 27.5067 16.2769ZM51.8202 16.2886C51.9856 16.4866 53.1772 21.1411 53.1772 21.5887C53.1772 21.6498 51.2975 21.6998 49 21.6998C46.7025 21.6998 44.8228 21.6498 44.8228 21.5887C44.8228 21.1411 46.0144 16.4866 46.1798 16.2886C46.4779 15.9316 51.5221 15.9316 51.8202 16.2886ZM76.1439 16.3126C76.3378 16.5445 77.481 21.0005 77.481 21.5236C77.481 21.6274 75.7644 21.6998 73.3038 21.6998C71.0063 21.6998 69.1266 21.6634 69.1266 21.6191C69.1266 21.2081 70.3418 16.4585 70.4933 16.2769C70.7986 15.9114 75.8356 15.9431 76.1439 16.3126ZM38.8934 42.9751C38.6677 43.2302 38.5792 43.9701 38.5042 46.23C38.4235 48.6568 38.3335 49.3475 37.9756 50.287C37.618 51.2255 37.5252 51.9354 37.4335 54.4382L37.3228 57.4573L35.5332 57.5121C34.5489 57.5421 33.6466 57.5296 33.5278 57.4845C33.3675 57.4232 33.3747 56.7065 33.5561 54.6937C33.9278 50.5674 34.1225 50.7587 29.5539 50.7587C25.1659 50.7587 25.3439 50.6357 25.529 53.5404C25.6004 54.6569 25.7101 56.0163 25.7732 56.5611L25.8877 57.5517H24.659C23.9832 57.5517 23.3925 57.5141 23.3462 57.4681C23.2999 57.4221 23.3654 56.2544 23.4916 54.8736C23.799 51.5148 23.8008 51.5671 23.3671 51.1361C23.0149 50.7861 22.7342 50.7587 19.5041 50.7587C15.1338 50.7587 15.2794 50.6655 15.4566 53.3523C15.5234 54.3647 15.6339 55.7238 15.7021 56.3724L15.8263 57.5517H10.2928C5.01259 57.5517 4.74203 57.5691 4.37975 57.9291C4.03513 58.2716 4 58.558 4 61.0216C4 64.1781 4.12399 64.4845 5.47342 64.6645L6.27848 64.7717V76.696V88.6204L6.71785 89.0308L7.15741 89.441H49.0266H90.8958L91.3087 89.0044L91.7215 88.5675V76.6696V64.7717L92.5266 64.6645C93.876 64.4845 94 64.1781 94 61.0216C94 58.558 93.9649 58.2716 93.6202 57.9291C93.2447 57.5558 92.9874 57.5517 70.105 57.5517H46.9695L46.8575 54.8628C46.772 52.8109 46.6465 51.8833 46.3279 50.9474C45.9924 49.9624 45.8872 49.1024 45.7936 46.5801C45.639 42.4081 45.8631 42.6449 42.0696 42.6449C39.5606 42.6449 39.1475 42.6879 38.8934 42.9751ZM43.1139 47.4549C43.1139 49.3122 43.1863 49.8317 43.6188 51.0761C44.0593 52.3439 44.1258 52.8426 44.1409 54.9932L44.1582 57.4573L42.1171 57.5109L40.0759 57.5645V54.9492C40.0759 52.6473 40.1327 52.1728 40.5493 50.9874C40.8943 50.006 41.0568 49.0501 41.148 47.4637L41.2731 45.2866H42.1934H43.1139V47.4549ZM20.8023 55.1458C20.6225 57.6562 20.6639 57.5806 19.5081 57.5138L18.5289 57.4573L18.4027 56.5139C18.3334 55.995 18.2399 55.0823 18.1953 54.4854L18.1142 53.4004H19.5208H20.9272L20.8023 55.1458ZM30.877 54.9571C30.662 57.6423 30.7085 57.5517 29.5427 57.5517H28.5332L28.4086 55.995C28.3401 55.1387 28.2389 54.2046 28.1838 53.9193L28.0837 53.4004H29.5427H31.0015L30.877 54.9571ZM91.3418 61.1369V62.0803H49H6.65823V61.1369V60.1934H49H91.3418V61.1369ZM89.0633 75.7607V86.7993H83.1259H77.1886L76.2271 81.0335L75.2654 75.268L75.9459 74.9853C76.822 74.6217 77.6481 73.8467 77.979 73.0778C78.1401 72.704 78.2405 71.7794 78.2405 70.672C78.2405 67.8959 78.951 68.1186 70.0898 68.1186H62.6984L62.305 68.6158C61.9847 69.0201 61.9116 69.3809 61.9125 70.5499C61.9131 71.3401 62.0041 72.3108 62.1147 72.7067C62.3618 73.5909 63.6225 74.8836 64.3856 75.0353C64.6957 75.097 64.9494 75.2272 64.9494 75.325C64.9494 75.5233 63.2963 85.4648 63.1277 86.2804L63.0204 86.7993H59.523C57.5992 86.7993 56.0253 86.7589 56.0253 86.7094C56.0253 86.611 54.3858 76.6464 54.2316 75.8084C54.148 75.3537 54.2228 75.254 54.8409 74.9974C56.5228 74.299 57.1543 73.1229 57.1604 70.678C57.164 69.2034 57.1127 68.9373 56.7518 68.5552L56.3388 68.1186H49.0266C40.2072 68.1186 40.833 67.925 40.8396 70.6516C40.8457 73.1288 41.4702 74.2962 43.1667 75.0006C43.7504 75.2429 43.8616 75.3722 43.7838 75.7171C43.6908 76.1303 41.9747 86.5672 41.9747 86.7208C41.9747 86.764 40.4008 86.7993 38.477 86.7993H34.9796L34.8723 86.2804C34.7037 85.4648 33.0506 75.5233 33.0506 75.325C33.0506 75.2272 33.3043 75.097 33.6144 75.0353C34.3775 74.8836 35.6382 73.5909 35.8853 72.7067C35.9959 72.3108 36.0869 71.3401 36.0875 70.5499C36.0884 69.3809 36.0153 69.0201 35.695 68.6158L35.3016 68.1186H27.9102C19.049 68.1186 19.7595 67.8959 19.7595 70.672C19.7595 71.7794 19.8599 72.704 20.0209 73.0778C20.3519 73.8466 21.178 74.6217 22.0539 74.9853L22.7344 75.2678L21.8227 80.7033C21.3212 83.6928 20.9082 86.2875 20.9048 86.4691C20.8991 86.7764 20.485 86.7993 14.9177 86.7993H8.93671V75.7607V64.7221H49H89.0633V75.7607ZM33.4304 71.2843C33.4304 71.5726 33.2973 71.9972 33.1347 72.2278C32.8423 72.6429 32.7878 72.6472 27.9269 72.6472C22.4618 72.6472 22.4177 72.6372 22.4177 71.4073V70.7603H27.924H33.4304V71.2843ZM54.5063 71.3586C54.5063 71.6877 54.3649 72.1123 54.1921 72.3021C53.9033 72.6193 53.4856 72.6472 49.033 72.6472C43.6203 72.6472 43.4937 72.6185 43.4937 71.3915V70.7603H49H54.5063V71.3586ZM75.5823 71.4073C75.5823 72.6372 75.5382 72.6472 70.0731 72.6472C65.2121 72.6472 65.1577 72.6429 64.8653 72.2278C64.7027 71.9972 64.5696 71.5726 64.5696 71.2843V70.7603H70.076H75.5823V71.4073ZM84.9191 72.3291C84.5359 72.7346 84.5063 72.9552 84.5063 75.4006C84.5063 78.5096 84.6459 78.8741 85.8354 78.8741C87.0271 78.8741 87.1646 78.512 87.1646 75.3742C87.1646 72.8365 87.1442 72.694 86.7252 72.3027C86.155 71.7705 85.4375 71.7809 84.9191 72.3291ZM31.2297 80.7139C31.7236 83.6977 32.1702 86.2875 32.2222 86.4691C32.3103 86.7766 32.0175 86.7993 27.9368 86.7993C24.9624 86.7993 23.557 86.7347 23.557 86.5981C23.557 86.3602 25.2231 76.3313 25.3653 75.7135C25.4603 75.3003 25.5282 75.2889 27.8973 75.2889H30.3316L31.2297 80.7139ZM51.4684 75.3957C51.4684 75.545 53.1588 85.6452 53.29 86.2804L53.3973 86.7993H49H44.6027L44.71 86.2804C44.8412 85.6452 46.5316 75.545 46.5316 75.3957C46.5316 75.3371 47.6424 75.2889 49 75.2889C50.3576 75.2889 51.4684 75.3371 51.4684 75.3957ZM72.6372 75.7135C72.7516 76.1988 74.4411 86.4423 74.4423 86.6578C74.4427 86.7357 72.4722 86.7993 70.0632 86.7993C65.9825 86.7993 65.6897 86.7766 65.7778 86.4691C65.8298 86.2875 66.2764 83.6977 66.7703 80.7139L67.6684 75.2889H70.1027C72.471 75.2889 72.5397 75.3004 72.6372 75.7135Z" fill="#D5621D"/>
<path fill-rule="evenodd" clip-rule="evenodd" d="M4.41278 0.436638C4.0281 0.843651 4 1.05989 4 3.6116C4 6.22992 4.01918 6.36786 4.43937 6.76015C4.87816 7.16981 4.89316 7.17037 14.1229 7.17037H23.3671V10.2838V13.3973H22.5051C22.0192 13.3973 21.3199 13.5611 20.9022 13.773C19.5711 14.4477 19.2673 15.0693 18.3326 19.029C17.8642 21.013 17.481 22.8467 17.481 23.1041C17.481 23.3615 17.668 23.7453 17.8966 23.9568C18.2975 24.3279 18.5342 24.3415 24.6457 24.3415H30.9793L31.4453 23.8783C31.7016 23.6236 31.9114 23.2947 31.9114 23.1471C31.9114 22.9997 31.5246 21.2345 31.0516 19.2245C30.4748 16.7717 30.0419 15.3446 29.7351 14.884C29.1797 14.05 27.8999 13.3973 26.8197 13.3973H26.0253V10.2838V7.17037H36.8481H47.6709V10.2838V13.3973H46.9053C45.4277 13.3973 44.1662 14.1794 43.6169 15.4361C43.2966 16.1692 41.7848 22.5437 41.7848 23.1614C41.7848 23.3592 41.9827 23.7056 42.2242 23.9313C42.6575 24.3357 42.7551 24.3415 49.0266 24.3415H55.3894L55.8024 23.9049C56.0295 23.6647 56.2152 23.3182 56.2152 23.135C56.2152 22.5367 54.6956 16.1515 54.3831 15.4361C53.8338 14.1794 52.5723 13.3973 51.0947 13.3973H50.3291V10.2838V7.17037H61.1519H71.9747V10.2838V13.3973H71.1803C70.1001 13.3973 68.8203 14.05 68.2649 14.884C67.9581 15.3446 67.5252 16.7717 66.9484 19.2245C66.4754 21.2345 66.0886 22.9997 66.0886 23.1471C66.0886 23.2947 66.2984 23.6236 66.5547 23.8783L67.0207 24.3415H73.3543C79.4658 24.3415 79.7025 24.3279 80.1034 23.9568C80.332 23.7453 80.519 23.363 80.519 23.1075C80.519 22.852 80.1332 21.0147 79.6615 19.0245C78.7213 15.0567 78.4222 14.4443 77.0978 13.773C76.6801 13.5611 75.9808 13.3973 75.4949 13.3973H74.6329V10.2838V7.17037H83.9037H93.1742L93.5872 6.73374C93.9719 6.32672 94 6.11048 94 3.55877C94 0.940451 93.9808 0.802516 93.5606 0.410221L93.1211 0H48.9734H4.82576L4.41278 0.436638ZM91.3418 3.58519V4.52866H49H6.65823V3.58519V2.64172H49H91.3418V3.58519ZM27.5067 16.2769C27.6582 16.4585 28.8734 21.2081 28.8734 21.6191C28.8734 21.6634 26.9937 21.6998 24.6962 21.6998C22.2356 21.6998 20.519 21.6274 20.519 21.5236C20.519 21.0005 21.6622 16.5445 21.8561 16.3126C22.1644 15.9431 27.2014 15.9114 27.5067 16.2769ZM51.8202 16.2886C51.9856 16.4866 53.1772 21.1411 53.1772 21.5887C53.1772 21.6498 51.2975 21.6998 49 21.6998C46.7025 21.6998 44.8228 21.6498 44.8228 21.5887C44.8228 21.1411 46.0144 16.4866 46.1798 16.2886C46.4779 15.9316 51.5221 15.9316 51.8202 16.2886ZM76.1439 16.3126C76.3378 16.5445 77.481 21.0005 77.481 21.5236C77.481 21.6274 75.7644 21.6998 73.3038 21.6998C71.0063 21.6998 69.1266 21.6634 69.1266 21.6191C69.1266 21.2081 70.3418 16.4585 70.4933 16.2769C70.7986 15.9114 75.8356 15.9431 76.1439 16.3126ZM38.8934 42.9751C38.6677 43.2302 38.5792 43.9701 38.5042 46.23C38.4235 48.6568 38.3335 49.3475 37.9756 50.287C37.618 51.2255 37.5252 51.9354 37.4335 54.4382L37.3228 57.4573L35.5332 57.5121C34.5489 57.5421 33.6466 57.5296 33.5278 57.4845C33.3675 57.4232 33.3747 56.7065 33.5561 54.6937C33.9278 50.5674 34.1225 50.7587 29.5539 50.7587C25.1659 50.7587 25.3439 50.6357 25.529 53.5404C25.6004 54.6569 25.7101 56.0163 25.7732 56.5611L25.8877 57.5517H24.659C23.9832 57.5517 23.3925 57.5141 23.3462 57.4681C23.2999 57.4221 23.3654 56.2544 23.4916 54.8736C23.799 51.5148 23.8008 51.5671 23.3671 51.1361C23.0149 50.7861 22.7342 50.7587 19.5041 50.7587C15.1338 50.7587 15.2794 50.6655 15.4566 53.3523C15.5234 54.3647 15.6339 55.7238 15.7021 56.3724L15.8263 57.5517H10.2928C5.01259 57.5517 4.74203 57.5691 4.37975 57.9291C4.03513 58.2716 4 58.558 4 61.0216C4 64.1781 4.12399 64.4845 5.47342 64.6645L6.27848 64.7717V76.696V88.6204L6.71785 89.0308L7.15741 89.441H49.0266H90.8958L91.3087 89.0044L91.7215 88.5675V76.6696V64.7717L92.5266 64.6645C93.876 64.4845 94 64.1781 94 61.0216C94 58.558 93.9649 58.2716 93.6202 57.9291C93.2447 57.5558 92.9874 57.5517 70.105 57.5517H46.9695L46.8575 54.8628C46.772 52.8109 46.6465 51.8833 46.3279 50.9474C45.9924 49.9624 45.8872 49.1024 45.7936 46.5801C45.639 42.4081 45.8631 42.6449 42.0696 42.6449C39.5606 42.6449 39.1475 42.6879 38.8934 42.9751ZM43.1139 47.4549C43.1139 49.3122 43.1863 49.8317 43.6188 51.0761C44.0593 52.3439 44.1258 52.8426 44.1409 54.9932L44.1582 57.4573L42.1171 57.5109L40.0759 57.5645V54.9492C40.0759 52.6473 40.1327 52.1728 40.5493 50.9874C40.8943 50.006 41.0568 49.0501 41.148 47.4637L41.2731 45.2866H42.1934H43.1139V47.4549ZM20.8023 55.1458C20.6225 57.6562 20.6639 57.5806 19.5081 57.5138L18.5289 57.4573L18.4027 56.5139C18.3334 55.995 18.2399 55.0823 18.1953 54.4854L18.1142 53.4004H19.5208H20.9272L20.8023 55.1458ZM30.877 54.9571C30.662 57.6423 30.7085 57.5517 29.5427 57.5517H28.5332L28.4086 55.995C28.3401 55.1387 28.2389 54.2046 28.1838 53.9193L28.0837 53.4004H29.5427H31.0015L30.877 54.9571ZM91.3418 61.1369V62.0803H49H6.65823V61.1369V60.1934H49H91.3418V61.1369ZM89.0633 75.7607V86.7993H83.1259H77.1886L76.2271 81.0335L75.2654 75.268L75.9459 74.9853C76.822 74.6217 77.6481 73.8467 77.979 73.0778C78.1401 72.704 78.2405 71.7794 78.2405 70.672C78.2405 67.8959 78.951 68.1186 70.0898 68.1186H62.6984L62.305 68.6158C61.9847 69.0201 61.9116 69.3809 61.9125 70.5499C61.9131 71.3401 62.0041 72.3108 62.1147 72.7067C62.3618 73.5909 63.6225 74.8836 64.3856 75.0353C64.6957 75.097 64.9494 75.2272 64.9494 75.325C64.9494 75.5233 63.2963 85.4648 63.1277 86.2804L63.0204 86.7993H59.523C57.5992 86.7993 56.0253 86.7589 56.0253 86.7094C56.0253 86.611 54.3858 76.6464 54.2316 75.8084C54.148 75.3537 54.2228 75.254 54.8409 74.9974C56.5228 74.299 57.1543 73.1229 57.1604 70.678C57.164 69.2034 57.1127 68.9373 56.7518 68.5552L56.3388 68.1186H49.0266C40.2072 68.1186 40.833 67.925 40.8396 70.6516C40.8457 73.1288 41.4702 74.2962 43.1667 75.0006C43.7504 75.2429 43.8616 75.3722 43.7838 75.7171C43.6908 76.1303 41.9747 86.5672 41.9747 86.7208C41.9747 86.764 40.4008 86.7993 38.477 86.7993H34.9796L34.8723 86.2804C34.7037 85.4648 33.0506 75.5233 33.0506 75.325C33.0506 75.2272 33.3043 75.097 33.6144 75.0353C34.3775 74.8836 35.6382 73.5909 35.8853 72.7067C35.9959 72.3108 36.0869 71.3401 36.0875 70.5499C36.0884 69.3809 36.0153 69.0201 35.695 68.6158L35.3016 68.1186H27.9102C19.049 68.1186 19.7595 67.8959 19.7595 70.672C19.7595 71.7794 19.8599 72.704 20.0209 73.0778C20.3519 73.8466 21.178 74.6217 22.0539 74.9853L22.7344 75.2678L21.8227 80.7033C21.3212 83.6928 20.9082 86.2875 20.9048 86.4691C20.8991 86.7764 20.485 86.7993 14.9177 86.7993H8.93671V75.7607V64.7221H49H89.0633V75.7607ZM33.4304 71.2843C33.4304 71.5726 33.2973 71.9972 33.1347 72.2278C32.8423 72.6429 32.7878 72.6472 27.9269 72.6472C22.4618 72.6472 22.4177 72.6372 22.4177 71.4073V70.7603H27.924H33.4304V71.2843ZM54.5063 71.3586C54.5063 71.6877 54.3649 72.1123 54.1921 72.3021C53.9033 72.6193 53.4856 72.6472 49.033 72.6472C43.6203 72.6472 43.4937 72.6185 43.4937 71.3915V70.7603H49H54.5063V71.3586ZM75.5823 71.4073C75.5823 72.6372 75.5382 72.6472 70.0731 72.6472C65.2121 72.6472 65.1577 72.6429 64.8653 72.2278C64.7027 71.9972 64.5696 71.5726 64.5696 71.2843V70.7603H70.076H75.5823V71.4073ZM84.9191 72.3291C84.5359 72.7346 84.5063 72.9552 84.5063 75.4006C84.5063 78.5096 84.6459 78.8741 85.8354 78.8741C87.0271 78.8741 87.1646 78.512 87.1646 75.3742C87.1646 72.8365 87.1442 72.694 86.7252 72.3027C86.155 71.7705 85.4375 71.7809 84.9191 72.3291ZM31.2297 80.7139C31.7236 83.6977 32.1702 86.2875 32.2222 86.4691C32.3103 86.7766 32.0175 86.7993 27.9368 86.7993C24.9624 86.7993 23.557 86.7347 23.557 86.5981C23.557 86.3602 25.2231 76.3313 25.3653 75.7135C25.4603 75.3003 25.5282 75.2889 27.8973 75.2889H30.3316L31.2297 80.7139ZM51.4684 75.3957C51.4684 75.545 53.1588 85.6452 53.29 86.2804L53.3973 86.7993H49H44.6027L44.71 86.2804C44.8412 85.6452 46.5316 75.545 46.5316 75.3957C46.5316 75.3371 47.6424 75.2889 49 75.2889C50.3576 75.2889 51.4684 75.3371 51.4684 75.3957ZM72.6372 75.7135C72.7516 76.1988 74.4411 86.4423 74.4423 86.6578C74.4427 86.7357 72.4722 86.7993 70.0632 86.7993C65.9825 86.7993 65.6897 86.7766 65.7778 86.4691C65.8298 86.2875 66.2764 83.6977 66.7703 80.7139L67.6684 75.2889H70.1027C72.471 75.2889 72.5397 75.3004 72.6372 75.7135Z" stroke="black" stroke-width="2" mask="url(#path-1-inside-1_701_603)"/>
</g>
<defs>
<filter id="filter0_d_701_603" x="0" y="0" width="98" height="97.4409" filterUnits="userSpaceOnUse" color-interpolation-filters="sRGB">
<feFlood flood-opacity="0" result="BackgroundImageFix"/>
<feColorMatrix in="SourceAlpha" type="matrix" values="0 0 0 0 0 0 0 0 0 0 0 0 0 0 0 0 0 0 127 0" result="hardAlpha"/>
<feOffset dy="4"/>
<feGaussianBlur stdDeviation="2"/>
<feComposite in2="hardAlpha" operator="out"/>
<feColorMatrix type="matrix" values="0 0 0 0 0 0 0 0 0 0 0 0 0 0 0 0 0 0 0.25 0"/>
<feBlend mode="normal" in2="BackgroundImageFix" result="effect1_dropShadow_701_603"/>
<feBlend mode="normal" in="SourceGraphic" in2="effect1_dropShadow_701_603" result="shape"/>
</filter>
</defs>
</svg>
